PathFileType	4	(X/Y/Z)	/Users/niels/Desktop/University/Third Semester/Perception and Action/Exam/Gymnastics Motion Tracking/Code for Gym Tracking/Analyzed Data/Webcam_Backflip/id16_1_trajectory_Sports2D/id16_1_trajectory_Sports2D_px_person00.trc
DataRate	CameraRate	NumFrames	NumMarkers	Units	OrigDataRate	OrigDataStartFrame	OrigNumFrames
29.7	29.7	8	22	m	29.7	16	100
Frame#	Time	Hip			RHip			RKnee			RAnkle			RBigToe			RSmallToe			RHeel			LHip			LKnee			LAnkle			LBigToe			LSmallToe			LHeel			Neck			Head			Nose			RShoulder			RElbow			RWrist			LShoulder			LElbow			LWrist		
		X1	Y1	Z1	X2	Y2	Z2	X3	Y3	Z3	X4	Y4	Z4	X5	Y5	Z5	X6	Y6	Z6	X7	Y7	Z7	X8	Y8	Z8	X9	Y9	Z9	X10	Y10	Z10	X11	Y11	Z11	X12	Y12	Z12	X13	Y13	Z13	X14	Y14	Z14	X15	Y15	Z15	X16	Y16	Z16	X17	Y17	Z17	X18	Y18	Z18	X19	Y19	Z19	X20	Y20	Z20	X21	Y21	Z21	X22	Y22	Z22
16	0.5387205387205387	0.9914134485828942	-1.0567882035144085	0.0	0.7899686302281412	-1.0471848766589817	0.0	0.5600410062789617	-1.047631835658232	0.0	0.81439306640625	-1.04120849609375	0.0	0.6857673339843746	-0.24904003906249994	0.0			0.0			0.0	1.1593016300742245	-1.0377288084868672	0.0	0.6136091214960929	-1.0297754052211379	0.0			0.0			0.0			0.0			0.0	0.9859020511607665	-0.6179445686721287	0.0	1.013695479803782	-0.24820777646500453	0.0	1.0225522898192245	-0.4177447096461371	0.0	0.7130164633273296	-0.7230159130752303	0.0	0.46809667272421623	-0.3861853695984936	0.0	0.44823675364155874	0.024356351331705377	0.0	1.249874167838888	-0.6895638697940969	0.0	1.4399960147674968	-0.31017434259648563	0.0	1.399819335641976	0.030538185311988028	0.0
17	0.5723905723905723	0.9880113024480128	-1.0596673933650465	0.0	0.7832179044412706	-1.0522816726322235	0.0	0.5600409891523812	-1.047631835022184	0.0	0.81439306640625	-1.04120849609375	0.0	0.6857673339843746	-0.24904003906249994	0.0			0.0			0.0	1.1472506154489253	-1.0434793206332789	0.0	0.613600860374915	-1.0297750400472894	0.0			0.0			0.0			0.0			0.0	0.9839393787200963	-0.6176562352991458	0.0	1.0291779114877266	-0.25553188123483006	0.0	1.0409135119568376	-0.4254597740752593	0.0	0.7164068115602217	-0.7143339741900798	0.0	0.46997031774778725	-0.3834832471467878	0.0	0.3884176100442023	0.025784161549161935	0.0	1.2370438802660229	-0.6866870491354107	0.0	1.4159651024213862	-0.3160640893753715	0.0	1.3797466491826023	0.027534862079220113	0.0
18	0.6060606060606061	0.9824366000754278	-1.0646368166880384	0.0	0.7750247830737311	-1.0571235280180193	0.0	0.5600409649671321	-1.047631834079658	0.0	0.81439306640625	-1.04120849609375	0.0	0.6857673339843746	-0.24904003906249994	0.0			0.0			0.0	1.1350431714788864	-1.0503278760707009	0.0	0.6135870518078653	-1.0297743845735998	0.0			0.0			0.0			0.0			0.0	0.9793664523039459	-0.6252764370059618	0.0	1.0444514584579128	-0.2695164494902945	0.0	1.0615079693270149	-0.441875718599469	0.0	0.7167586340404634	-0.7141428562627818	0.0	0.47238932622707286	-0.3879778928613676	0.0	0.34336672717275746	0.026665922231014903	0.0	1.222210165208629	-0.692852428472707	0.0	1.391703870681708	-0.3334240236511432	0.0	1.3560805297777812	0.02129105282507408	0.0
19	0.6397306397306397	0.9744761915112166	-1.069762387615997	0.0	0.7663296507781004	-1.0604988274331004	0.0	0.5600409394907585	-1.0476318330107643	0.0	0.81439306640625	-1.04120849609375	0.0	0.6857673339843746	-0.24904003906249994	0.0			0.0			0.0	1.1225212465845475	-1.0562833686759245	0.0	0.6135688304594922	-1.0297734542966817	0.0			0.0			0.0			0.0			0.0	0.9714704727781335	-0.6381797137669988	0.0	1.0563869542490607	-0.2886539342829004	0.0	1.0806842864540334	-0.4638972212456861	0.0	0.714125969532197	-0.7199320477393679	0.0	0.4763058673119718	-0.39765758973809257	0.0	0.3198718338804832	0.026962333236728576	0.0	1.2048758272920719	-0.7048090282582409	0.0	1.3672235423577201	-0.35926290705623254	0.0	1.3347975111952983	0.01055850206455671	0.0
20	0.6734006734006734	0.9637697928307188	-1.073341070238437	0.0	0.7577414066040439	-1.0616157692821668	0.0	0.5600409275388929	-1.0476318323344138	0.0	0.81439306640625	-1.04120849609375	0.0	0.6857673339843746	-0.24904003906249994	0.0			0.0			0.0	1.1092495829230704	-1.0593621364491375	0.0	0.613551829365254	-1.0297724663773233	0.0			0.0			0.0			0.0			0.0	0.9598674831308659	-0.6521081807739293	0.0	1.0616775024054785	-0.3093984688875663	0.0	1.0943768982545121	-0.48668225040696	0.0	0.7089031948964317	-0.7271243578858306	0.0	0.4825342932416647	-0.40929426608108915	0.0	0.32081141988823714	0.026973041301705875	0.0	1.1845931902099247	-0.7178097994876369	0.0	1.3433386899753006	-0.38890340871934265	0.0	1.3220478190093536	-0.00485307942549752	0.0
21	0.7070707070707071	0.9501868567547203	-1.07489218896106	0.0	0.7494849492166837	-1.060884271799687	0.0	0.560040956161903	-1.0476318330510734	0.0	0.81439306640625	-1.04120849609375	0.0	0.6857673339843746	-0.24904003906249994	0.0			0.0			0.0	1.0955674628495689	-1.0593864949519056	0.0	0.6135488967921524	-1.0297719845583397	0.0			0.0			0.0			0.0			0.0	0.9447430511850642	-0.6628322981999565	0.0	1.0579293686364128	-0.3274323185893956	0.0	1.0996567054555666	-0.5054791268753834	0.0	0.7015485285670414	-0.7311674023689484	0.0	0.49167515566785364	-0.4193264974637056	0.0	0.34569950400042765	0.02686773017074034	0.0	1.1615470346223995	-0.7271160950909131	0.0	1.321557209673969	-0.4171499898674947	0.0	1.322590244124178	-0.023692495013081082	0.0
22	0.7407407407407407	0.9344262429998013	-1.0751475796931071	0.0	0.7419292298981367	-1.0597022452864522	0.0	0.5600410643674142	-1.0476318366738269	0.0	0.81439306640625	-1.04120849609375	0.0	0.6857673339843746	-0.24904003906249994	0.0			0.0			0.0	1.0827364132497403	-1.0581963394674865	0.0	0.6135819616359509	-1.0297730436861539	0.0			0.0			0.0			0.0			0.0	0.9270511283155239	-0.6677585624973976	0.0	1.0448348945699175	-0.3395165037742843	0.0	1.0956230779739797	-0.5172843122117239	0.0	0.6926522415819172	-0.7295963864858293	0.0	0.5036870967417938	-0.425016012856955	0.0	0.39160432302490084	0.026072215266151676	0.0	1.1369225259424356	-0.7295460490169247	0.0	1.303552808137089	-0.4396140828785591	0.0	1.338417876002311	-0.04407002795774086	0.0
23	0.7744107744107744	0.9184205756818361	-1.0756128620597165	0.0	0.7356758474513846	-1.059907087752778	0.0	0.5600412946324617	-1.0476318449685549	0.0	0.81439306640625	-1.04120849609375	0.0	0.6857673339843746	-0.24904003906249994	0.0			0.0			0.0	1.0718616102207625	-1.058434579612293	0.0	0.6136806168860047	-1.0297771434314855	0.0			0.0			0.0			0.0			0.0	0.9082829150725176	-0.6665055753543141	0.0	1.0243599198187125	-0.3445883250613285	0.0	1.0831522377618124	-0.521305423574662	0.0	0.6830757591707003	-0.7226603989098801	0.0	0.5175454439493994	-0.4252616765253043	0.0	0.4536815701154696	0.023598186157850413	0.0	1.112558958989286	-0.7244663342140284	0.0	1.290462982526745	-0.45381817768015836	0.0	1.3679876343653323	-0.06481657896969492	0.0
